<svg width="54" height="52" viewBox="0 0 54 52" fill="none" xmlns="http://www.w3.org/2000/svg">
<ellipse cx="26.6146" cy="26" rx="26.6146" ry="26" fill="#744214"></ellipse>
<path d="M12.4325 26.3435C4.74154 21.2116 9.82609 15.9086 13.3297 13.8986C0.101362 19.749 7.21973 26.6857 12.4325 29.4227C17.4572 29.1148 19.397 32.4591 19.7388 34.1697L20.8925 42.894L21.9179 34.1697C20.8925 27.3956 15.167 26.1297 12.4325 26.3435Z" fill="white"></path>
<path d="M40.6551 26.3435C48.2312 21.2116 43.2226 15.9086 39.7712 13.8986C52.8022 19.749 45.79 26.6857 40.6551 29.4227C35.7054 29.1148 33.7945 32.4591 33.4578 34.1697L32.3214 42.894L31.3112 34.1697C32.3214 27.3956 37.9614 26.1297 40.6551 26.3435Z" fill="white" stroke="white"></path>
<path d="M26.8555 30.5792C26.952 30.9954 27.045 31.554 27.1251 32.2354C27.3183 33.8801 27.4395 36.166 27.4395 38.7003C27.4395 41.2347 27.3183 43.5213 27.1251 45.1661C27.045 45.8471 26.952 46.4052 26.8555 46.8214C26.7591 46.4052 26.666 45.8471 26.586 45.1661C26.3928 43.5213 26.2715 41.2347 26.2715 38.7003C26.2716 36.166 26.3928 33.8801 26.586 32.2354C26.6661 31.554 26.759 30.9954 26.8555 30.5792Z" fill="white" stroke="white"></path>
<ellipse cx="26.0124" cy="7.30876" rx="3.61284" ry="3.47465" fill="white"></ellipse>
</svg>